# xmcd
#
# Track frame offsets:
#	150
#	9687
#	21175
#	29830
#	40720
#	49827
#	58337
#	68940
#	80147
#	88220
#	98560
#	107402
#	117942
#	128982
#	141737
#	154345
#	163467
#	173515
#	187150
#	198177
#	207567
#	216052
#	229592
#	238680
#
# Disc length: 3314 seconds
#
# Revision: 0
# Processed by: cddbd v1.4PL0 Copyright (c) Steve Scherf et al.
# Submitted via: MusicWizard 6.0.0
#
DISCID=690cf018
DTITLE=Johnny Cash - The Gospel Collection
DYEAR=1992
DGENRE=Country
TTITLE0=It Was Jesus
TTITLE1=I Saw A Man
TTITLE2=Are All The Children In
TTITLE3=The Old Account
TTITLE4=Lead Me Gently Home
TTITLE5=Swing Low, Sweet Chariot
TTITLE6=Snow In His Hair
TTITLE7=Lead Me Father
TTITLE8=I Call Him
TTITLE9=These Things Shall Pass
TTITLE10=He'll Be A Friend
TTITLE11=God Will
TTITLE12=He'll Understand And Say Well Done
TTITLE13=God Must Have My Fortune Laid Away
TTITLE14=When I've Learned
TTITLE15=I Got Shoes
TTITLE16=Let The Lower Lights Be Burning
TTITLE17=If We Never Meet Again
TTITLE18=When I Take My Vacation In Heaven
TTITLE19=When The Savior Reached Down For Me
TTITLE20=Taller Than Trees
TTITLE21=I Won't Have To Cross Jordon Alone
TTITLE22=My God Is Real (Yes God Is Real)
TTITLE23=These Hands
EXTD=(c)1992 Sony Music Entertainment/ LEGACY USA\nupc 074644899522
EXTT0=
EXTT1=
EXTT2=
EXTT3=
EXTT4=
EXTT5=
EXTT6=
EXTT7=
EXTT8=
EXTT9=
EXTT10=
EXTT11=
EXTT12=
EXTT13=
EXTT14=
EXTT15=
EXTT16=
EXTT17=
EXTT18=
EXTT19=
EXTT20=
EXTT21=
EXTT22=
EXTT23=
PLAYORDER=
